# xmcd
#
# Track frame offsets: 
#        187
#        13655
#        28070
#        39767
#        54280
#        69202
#        82627
#        96025
#        107805
#        120477
#        134050
#        146052
#        159202
#        171815
#        183972
#        197120
#        209922
#        221832
#        233212
#        246567
#        258000
#        271952
#        283792
#        296262
#        310347
#
# Disc length: 4286 seconds
#
# Revision: 2
# Processed by: cddbd v1.5.2PL0 Copyright (c) Steve Scherf et al.
# Submitted via: ExactAudioCopy v0.95b4
#
DISCID=6910bc19
DTITLE=Charlie Parker - Bird The Savoy Recordings (Master Takes)
DYEAR=1985
DGENRE=Jazz
TTITLE0=Tiny's Tempo
TTITLE1=Red Cross
TTITLE2=Warming Up A Riff
TTITLE3=Billie's Bounce
TTITLE4=Now's The Time
TTITLE5=Thriving On A Riff
TTITLE6=Koko
TTITLE7=Donna Lee
TTITLE8=Chasin' The Bird
TTITLE9=Cheryl
TTITLE10=Milestones
TTITLE11=Little Willie Leaps
TTITLE12=Half Nelson
TTITLE13=Another Hair-Do
TTITLE14=Bluebird
TTITLE15=Klaunstance
TTITLE16=Bird Gets The Worm
TTITLE17=Barbados
TTITLE18=Ah-Leu-Cha
TTITLE19=Constellation
TTITLE20=Parker's Mood
TTITLE21=Perhaps
TTITLE22=Marmaduke
TTITLE23=Steeplechase
TTITLE24=Merry-Go-Round
EXTD=
EXTT0=
EXTT1=
EXTT2=
EXTT3=
EXTT4=
EXTT5=
EXTT6=
EXTT7=
EXTT8=
EXTT9=
EXTT10=
EXTT11=
EXTT12=
EXTT13=
EXTT14=
EXTT15=
EXTT16=
EXTT17=
EXTT18=
EXTT19=
EXTT20=
EXTT21=
EXTT22=
EXTT23=
EXTT24=
PLAYORDER=
